<mxfile host="app.diagrams.net" modified="2021-11-28T19:46:59.529Z" agent="5.0 (Windows)" etag="c6OvaYzRdY4_WMSCdOAb" version="15.8.6" type="github">
  <diagram id="qZuJ994I1L6a4Dy2M6rf" name="Page-1">
    <mxGraphModel dx="1422" dy="724" grid="1" gridSize="10" guides="1" tooltips="1" connect="1" arrows="1" fold="1" page="1" pageScale="1" pageWidth="1169" pageHeight="827" math="0" shadow="0">
      <root>
        <mxCell id="0" />
        <mxCell id="1" parent="0" />
        <mxCell id="OojuoObl-5ZBMCGPADX9-1" value="" style="rounded=0;html=1;jettySize=auto;orthogonalLoop=1;fontSize=11;endArrow=block;endFill=0;endSize=8;strokeWidth=1;shadow=0;labelBackgroundColor=none;edgeStyle=orthogonalEdgeStyle;" parent="1" source="OojuoObl-5ZBMCGPADX9-2" target="OojuoObl-5ZBMCGPADX9-5" edge="1">
          <mxGeometry relative="1" as="geometry" />
        </mxCell>
        <mxCell id="OojuoObl-5ZBMCGPADX9-2" value="&lt;pre&gt;&lt;code class=&quot;cm-s-ipython language-python&quot;&gt;&lt;span class=&quot;cm-variable&quot;&gt;prenom&lt;/span&gt; &lt;span class=&quot;cm-operator&quot;&gt;=&lt;/span&gt; &lt;span class=&quot;cm-builtin&quot;&gt;input&lt;/span&gt;(&lt;span class=&quot;cm-string&quot;&gt;&quot;Quel est votre prÃ©nom ? &quot;&lt;/span&gt;)&lt;/code&gt;&lt;/pre&gt;" style="rounded=1;whiteSpace=wrap;html=1;fontSize=12;glass=0;strokeWidth=1;shadow=0;" parent="1" vertex="1">
          <mxGeometry x="60" y="80" width="320" height="40" as="geometry" />
        </mxCell>
        <mxCell id="OojuoObl-5ZBMCGPADX9-3" value="TRUE" style="rounded=0;html=1;jettySize=auto;orthogonalLoop=1;fontSize=11;endArrow=block;endFill=0;endSize=8;strokeWidth=1;shadow=0;labelBackgroundColor=none;edgeStyle=orthogonalEdgeStyle;entryX=0.5;entryY=0;entryDx=0;entryDy=0;exitX=0;exitY=0.5;exitDx=0;exitDy=0;" parent="1" source="OojuoObl-5ZBMCGPADX9-5" target="OojuoObl-5ZBMCGPADX9-9" edge="1">
          <mxGeometry x="-0.4667" y="10" relative="1" as="geometry">
            <mxPoint as="offset" />
            <mxPoint x="220" y="290" as="targetPoint" />
          </mxGeometry>
        </mxCell>
        <mxCell id="OojuoObl-5ZBMCGPADX9-4" value="FALSE" style="edgeStyle=orthogonalEdgeStyle;rounded=0;html=1;jettySize=auto;orthogonalLoop=1;fontSize=11;endArrow=none;endFill=0;endSize=8;strokeWidth=1;shadow=0;labelBackgroundColor=none;" parent="1" source="OojuoObl-5ZBMCGPADX9-5" edge="1">
          <mxGeometry x="-0.7647" y="-10" relative="1" as="geometry">
            <mxPoint as="offset" />
            <mxPoint x="210" y="360" as="targetPoint" />
            <Array as="points">
              <mxPoint x="340" y="210" />
            </Array>
          </mxGeometry>
        </mxCell>
        <mxCell id="OojuoObl-5ZBMCGPADX9-5" value="&lt;pre&gt;&lt;code class=&quot;cm-s-ipython language-python&quot;&gt;&lt;span class=&quot;cm-variable&quot;&gt;prenom&lt;/span&gt; &lt;span class=&quot;cm-operator&quot;&gt;==&lt;/span&gt; &lt;span class=&quot;cm-string&quot;&gt;&lt;br&gt;&quot;Jean&quot;&lt;/span&gt;&lt;/code&gt;&lt;/pre&gt;" style="rhombus;whiteSpace=wrap;html=1;shadow=0;fontFamily=Helvetica;fontSize=12;align=center;strokeWidth=1;spacing=6;spacingTop=-4;" parent="1" vertex="1">
          <mxGeometry x="160" y="170" width="120" height="80" as="geometry" />
        </mxCell>
        <mxCell id="OojuoObl-5ZBMCGPADX9-8" style="edgeStyle=orthogonalEdgeStyle;rounded=0;orthogonalLoop=1;jettySize=auto;html=1;exitX=0.5;exitY=1;exitDx=0;exitDy=0;endArrow=block;endFill=0;" parent="1" source="OojuoObl-5ZBMCGPADX9-9" edge="1">
          <mxGeometry relative="1" as="geometry">
            <mxPoint x="220" y="390" as="targetPoint" />
          </mxGeometry>
        </mxCell>
        <mxCell id="OojuoObl-5ZBMCGPADX9-9" value="&lt;pre&gt;&lt;code class=&quot;cm-s-ipython language-python&quot;&gt;&lt;span class=&quot;cm-builtin&quot;&gt;print&lt;/span&gt;(&lt;span class=&quot;cm-string&quot;&gt;&quot;Bonjour&quot;&lt;/span&gt;, &lt;span class=&quot;cm-variable&quot;&gt;prenom&lt;/span&gt;)&lt;/code&gt;&lt;/pre&gt;" style="rounded=1;whiteSpace=wrap;html=1;fontSize=12;glass=0;strokeWidth=1;shadow=0;" parent="1" vertex="1">
          <mxGeometry x="20" y="290" width="180" height="40" as="geometry" />
        </mxCell>
        <mxCell id="OojuoObl-5ZBMCGPADX9-10" value="&lt;pre&gt;&lt;code class=&quot;cm-s-ipython language-python&quot;&gt;&lt;span class=&quot;cm-builtin&quot;&gt;print&lt;/span&gt;(&lt;span class=&quot;cm-string&quot;&gt;&quot;suite du programme ?&quot;&lt;/span&gt;)&lt;/code&gt;&lt;/pre&gt;" style="rounded=1;whiteSpace=wrap;html=1;fontSize=12;glass=0;strokeWidth=1;shadow=0;" parent="1" vertex="1">
          <mxGeometry x="110" y="390" width="230" height="40" as="geometry" />
        </mxCell>
      </root>
    </mxGraphModel>
  </diagram>
</mxfile>
